<svg width="19" height="18" viewBox="0 0 19 18" fill="none" xmlns="http://www.w3.org/2000/svg">
<path d="M14 1.5V3M5 1.5V3" stroke="#757575" stroke-width="1.125" stroke-linecap="round" stroke-linejoin="round"/>
<path d="M2.375 9.1824C2.375 5.91445 2.375 4.28046 3.31409 3.26523C4.25318 2.25 5.76462 2.25 8.7875 2.25H10.2125C13.2354 2.25 14.7468 2.25 15.6859 3.26523C16.625 4.28046 16.625 5.91445 16.625 9.1824V9.5676C16.625 12.8356 16.625 14.4695 15.6859 15.4848C14.7468 16.5 13.2354 16.5 10.2125 16.5H8.7875C5.76462 16.5 4.25318 16.5 3.31409 15.4848C2.375 14.4695 2.375 12.8356 2.375 9.5676V9.1824Z" stroke="#757575" stroke-width="1.125" stroke-linecap="round" stroke-linejoin="round"/>
<path d="M2.75 6H16.25" stroke="#757575" stroke-width="1.125" stroke-linecap="round" stroke-linejoin="round"/>
</svg>
